<svg id="visual" viewBox="0 0 900 600" width="900" height="600" xmlns="http://www.w3.org/2000/svg" xmlns:xlink="http://www.w3.org/1999/xlink" version="1.1"><path d="M0 283L6.5 254C13 225 26 167 39 149C52 131 65 153 78 192C91 231 104 287 117.2 295C130.3 303 143.7 263 156.8 229C170 195 183 167 196 191C209 215 222 291 235 290C248 289 261 211 274 214C287 217 300 301 313 294C326 287 339 189 352 171C365 153 378 215 391 213C404 211 417 145 430.2 153C443.3 161 456.7 243 469.8 245C483 247 496 169 509 144C522 119 535 147 548 154C561 161 574 147 587 169C600 191 613 249 626 265C639 281 652 255 665 239C678 223 691 217 704 205C717 193 730 175 743.2 192C756.3 209 769.7 261 782.8 247C796 233 809 153 822 120C835 87 848 101 861 139C874 177 887 239 893.5 270L900 301L900 0L893.5 0C887 0 874 0 861 0C848 0 835 0 822 0C809 0 796 0 782.8 0C769.7 0 756.3 0 743.2 0C730 0 717 0 704 0C691 0 678 0 665 0C652 0 639 0 626 0C613 0 600 0 587 0C574 0 561 0 548 0C535 0 522 0 509 0C496 0 483 0 469.8 0C456.7 0 443.3 0 430.2 0C417 0 404 0 391 0C378 0 365 0 352 0C339 0 326 0 313 0C300 0 287 0 274 0C261 0 248 0 235 0C222 0 209 0 196 0C183 0 170 0 156.8 0C143.7 0 130.3 0 117.2 0C104 0 91 0 78 0C65 0 52 0 39 0C26 0 13 0 6.5 0L0 0Z" fill="#6198ff"></path><path d="M0 415L6.5 398C13 381 26 347 39 335C52 323 65 333 78 364C91 395 104 447 117.2 443C130.3 439 143.7 379 156.8 355C170 331 183 343 196 376C209 409 222 463 235 453C248 443 261 369 274 362C287 355 300 415 313 421C326 427 339 379 352 353C365 327 378 323 391 305C404 287 417 255 430.2 274C443.3 293 456.7 363 469.8 362C483 361 496 289 509 270C522 251 535 285 548 308C561 331 574 343 587 366C600 389 613 423 626 412C639 401 652 345 665 340C678 335 691 381 704 370C717 359 730 291 743.2 296C756.3 301 769.7 379 782.8 374C796 369 809 281 822 252C835 223 848 253 861 296C874 339 887 395 893.5 423L900 451L900 299L893.5 268C887 237 874 175 861 137C848 99 835 85 822 118C809 151 796 231 782.8 245C769.7 259 756.3 207 743.2 190C730 173 717 191 704 203C691 215 678 221 665 237C652 253 639 279 626 263C613 247 600 189 587 167C574 145 561 159 548 152C535 145 522 117 509 142C496 167 483 245 469.8 243C456.7 241 443.3 159 430.2 151C417 143 404 209 391 211C378 213 365 151 352 169C339 187 326 285 313 292C300 299 287 215 274 212C261 209 248 287 235 288C222 289 209 213 196 189C183 165 170 193 156.8 227C143.7 261 130.3 301 117.2 293C104 285 91 229 78 190C65 151 52 129 39 147C26 165 13 223 6.5 252L0 281Z" fill="#0066ff"></path><path d="M0 601L6.5 601C13 601 26 601 39 601C52 601 65 601 78 601C91 601 104 601 117.2 601C130.3 601 143.7 601 156.8 601C170 601 183 601 196 601C209 601 222 601 235 601C248 601 261 601 274 601C287 601 300 601 313 601C326 601 339 601 352 601C365 601 378 601 391 601C404 601 417 601 430.2 601C443.3 601 456.7 601 469.8 601C483 601 496 601 509 601C522 601 535 601 548 601C561 601 574 601 587 601C600 601 613 601 626 601C639 601 652 601 665 601C678 601 691 601 704 601C717 601 730 601 743.2 601C756.3 601 769.7 601 782.8 601C796 601 809 601 822 601C835 601 848 601 861 601C874 601 887 601 893.5 601L900 601L900 449L893.5 421C887 393 874 337 861 294C848 251 835 221 822 250C809 279 796 367 782.8 372C769.7 377 756.3 299 743.2 294C730 289 717 357 704 368C691 379 678 333 665 338C652 343 639 399 626 410C613 421 600 387 587 364C574 341 561 329 548 306C535 283 522 249 509 268C496 287 483 359 469.8 360C456.7 361 443.3 291 430.2 272C417 253 404 285 391 303C378 321 365 325 352 351C339 377 326 425 313 419C300 413 287 353 274 360C261 367 248 441 235 451C222 461 209 407 196 374C183 341 170 329 156.8 353C143.7 377 130.3 437 117.2 441C104 445 91 393 78 362C65 331 52 321 39 333C26 345 13 379 6.5 396L0 413Z" fill="#004cbb"></path></svg>