<svg id="visual" viewBox="0 0 900 600" width="900" height="600" xmlns="http://www.w3.org/2000/svg" xmlns:xlink="http://www.w3.org/1999/xlink" version="1.1"><rect x="0" y="0" width="900" height="600" fill="#c21919"></rect><path d="M0 328L64 316L129 397L193 488L257 327L321 439L386 325L450 246L514 397L579 218L643 305L707 251L771 304L836 233L900 463L900 601L836 601L771 601L707 601L643 601L579 601L514 601L450 601L386 601L321 601L257 601L193 601L129 601L64 601L0 601Z" fill="#f5730a"></path><path d="M0 259L64 311L129 330L193 339L257 325L321 284L386 409L450 286L514 400L579 442L643 287L707 478L771 428L836 258L900 282L900 601L836 601L771 601L707 601L643 601L579 601L514 601L450 601L386 601L321 601L257 601L193 601L129 601L64 601L0 601Z" fill="#e5650a"></path><path d="M0 443L64 395L129 452L193 370L257 331L321 493L386 450L450 497L514 381L579 314L643 325L707 501L771 494L836 341L900 354L900 601L836 601L771 601L707 601L643 601L579 601L514 601L450 601L386 601L321 601L257 601L193 601L129 601L64 601L0 601Z" fill="#d65809"></path><path d="M0 486L64 352L129 477L193 452L257 509L321 451L386 400L450 394L514 449L579 410L643 497L707 506L771 506L836 411L900 422L900 601L836 601L771 601L707 601L643 601L579 601L514 601L450 601L386 601L321 601L257 601L193 601L129 601L64 601L0 601Z" fill="#c64b08"></path><path d="M0 536L64 423L129 526L193 427L257 453L321 429L386 520L450 482L514 427L579 438L643 436L707 431L771 476L836 472L900 395L900 601L836 601L771 601L707 601L643 601L579 601L514 601L450 601L386 601L321 601L257 601L193 601L129 601L64 601L0 601Z" fill="#b63d06"></path><path d="M0 520L64 499L129 512L193 516L257 531L321 525L386 542L450 468L514 534L579 527L643 469L707 509L771 485L836 471L900 527L900 601L836 601L771 601L707 601L643 601L579 601L514 601L450 601L386 601L321 601L257 601L193 601L129 601L64 601L0 601Z" fill="#a63005"></path><path d="M0 491L64 522L129 510L193 552L257 565L321 475L386 488L450 476L514 509L579 472L643 550L707 515L771 566L836 509L900 478L900 601L836 601L771 601L707 601L643 601L579 601L514 601L450 601L386 601L321 601L257 601L193 601L129 601L64 601L0 601Z" fill="#972303"></path><path d="M0 535L64 547L129 524L193 551L257 580L321 520L386 519L450 529L514 567L579 574L643 531L707 549L771 546L836 529L900 553L900 601L836 601L771 601L707 601L643 601L579 601L514 601L450 601L386 601L321 601L257 601L193 601L129 601L64 601L0 601Z" fill="#871400"></path></svg>